<?xml version="1.0" standalone="no"?>
<!DOCTYPE svg PUBLIC "-//W3C//DTD SVG 20010904//EN"
 "http://www.w3.org/TR/2001/REC-SVG-20010904/DTD/svg10.dtd">
<svg version="1.0" xmlns="http://www.w3.org/2000/svg"
 width="455.000000pt" height="231.000000pt" viewBox="0 0 455.000000 231.000000"
 preserveAspectRatio="xMidYMid meet">

<g transform="translate(0.000000,231.000000) scale(0.100000,-0.100000)"
fill="#000000" stroke="none">
<path d="M2247 2280 c-107 -19 -199 -90 -245 -188 -25 -52 -27 -68 -27 -182 0
-115 2 -130 29 -195 16 -38 56 -119 88 -178 l59 -108 -59 -63 c-78 -84 -138
-178 -161 -252 -57 -183 -25 -363 84 -469 l47 -45 -205 0 -205 0 -6 103 c-5
104 -26 1262 -26 1460 l0 108 -117 -3 -116 -3 -138 -630 c-76 -346 -144 -654
-150 -683 -6 -30 -13 -52 -15 -49 -3 3 -72 310 -153 683 l-148 679 -116 3
-117 3 0 -103 c0 -72 -26 -1425 -30 -1560 0 -5 -110 -8 -245 -8 l-245 0 0 -30
0 -30 2250 0 2250 0 0 30 0 30 -341 0 -341 0 34 28 c51 42 67 62 98 127 37 76
60 208 60 341 l0 104 -109 0 -108 0 -6 -152 c-9 -252 -46 -308 -205 -308 -132
0 -191 57 -212 205 -13 95 -13 853 1 951 22 158 72 206 215 206 161 0 204 -69
204 -329 l0 -103 111 0 112 0 -6 143 c-4 105 -10 159 -26 209 -58 183 -179
262 -401 262 -240 -1 -363 -87 -426 -299 -15 -53 -18 -118 -21 -524 -4 -399
-2 -475 12 -545 27 -136 79 -230 158 -287 l40 -29 -221 0 -222 0 0 90 0 89
-38 11 c-33 8 -122 63 -122 74 0 2 22 45 49 97 57 110 98 231 107 323 l7 66
-110 0 -110 0 -13 -77 c-15 -97 -42 -199 -61 -235 l-14 -27 -128 200 -128 201
82 91 c45 51 99 118 121 150 116 170 144 331 82 463 -23 49 -106 120 -168 143
-63 23 -172 33 -239 21z m179 -211 c50 -47 51 -146 5 -282 -24 -69 -82 -181
-115 -222 l-24 -30 -22 50 c-92 212 -106 400 -37 481 41 47 144 49 193 3z
m-1551 -879 c74 -321 135 -585 135 -587 0 -2 -68 -3 -151 -3 l-151 0 6 393 c7
448 17 807 22 792 2 -5 65 -273 139 -595z m579 -112 l7 -478 -152 0 -151 0 4
23 c3 12 65 281 139 597 l134 575 6 -120 c4 -66 9 -335 13 -597z m918 -16
l127 -197 -42 -43 c-55 -56 -110 -82 -176 -82 -96 0 -142 48 -156 160 -11 94
30 253 86 331 11 16 23 29 27 29 4 0 64 -89 134 -198z m387 -459 c2 -2 -56 -3
-130 -2 -129 0 -133 1 -109 17 14 9 45 36 70 59 l45 41 60 -56 c33 -31 62 -57
64 -59z"/>
<path d="M1575 456 c-40 -17 -90 -75 -106 -123 -16 -47 -16 -146 0 -194 18
-56 75 -106 135 -120 125 -28 225 53 242 194 13 107 -36 211 -112 243 -42 17
-119 17 -159 0z m139 -17 c117 -92 89 -391 -39 -415 -53 -10 -104 22 -134 82
-50 98 -29 271 40 329 39 32 95 34 133 4z"/>
<path d="M3176 266 c-43 -112 -88 -213 -99 -225 l-21 -21 59 0 c59 1 60 1 33
16 -34 18 -36 44 -8 109 l20 46 76 -3 77 -3 23 -60 c30 -77 29 -81 -3 -93 -23
-9 -14 -11 52 -11 78 -1 79 0 58 17 -14 11 -49 87 -99 217 -42 110 -79 203
-83 207 -3 4 -42 -84 -85 -196z m100 19 l32 -85 -74 0 c-72 0 -73 0 -65 23 5
12 18 45 28 72 11 28 23 59 27 69 9 27 16 16 52 -79z"/>
<path d="M4254 454 c-72 -197 -159 -402 -177 -416 -21 -17 -20 -18 43 -17 54
0 61 2 38 10 -38 14 -42 36 -17 101 l21 58 78 0 77 0 22 -59 c27 -73 26 -85
-1 -99 -19 -9 -10 -11 51 -11 l74 -1 -20 22 c-12 13 -56 113 -98 223 -42 110
-79 202 -81 204 -2 2 -7 -5 -10 -15z m20 -151 c16 -43 31 -84 33 -90 4 -10
-13 -13 -67 -13 -54 0 -71 3 -67 13 2 6 17 47 33 90 16 42 31 77 34 77 3 0 18
-35 34 -77z"/>
<path d="M265 453 c11 -3 23 -10 27 -17 4 -6 8 -95 8 -198 l0 -187 -27 -15
c-27 -15 -25 -15 52 -15 65 0 76 2 60 11 -11 6 -23 16 -27 22 -4 6 -8 90 -8
187 0 178 4 199 40 212 8 3 -21 5 -65 5 -44 0 -71 -3 -60 -5z"/>
<path d="M480 451 l25 -7 3 -197 2 -196 -27 -15 c-27 -15 -26 -15 37 -15 55 1
61 2 38 11 -36 13 -40 36 -36 233 l3 160 57 -87 c31 -48 92 -140 135 -205 l78
-118 5 210 5 209 25 13 c22 11 18 13 -40 11 -36 0 -55 -3 -43 -5 40 -8 44 -24
41 -179 l-3 -148 -108 167 -109 167 -56 -1 c-40 -1 -50 -3 -32 -8z"/>
<path d="M920 451 l25 -7 0 -199 0 -199 -25 -13 c-23 -12 -19 -13 40 -12 60 0
63 1 41 13 -14 8 -28 22 -32 32 -10 25 -11 344 -1 344 4 0 41 -88 82 -195 41
-107 77 -195 80 -195 3 0 38 90 79 200 41 110 75 200 77 200 2 0 4 -83 4 -185
l0 -184 -27 -15 c-27 -15 -25 -15 52 -15 65 0 76 2 60 11 -11 6 -23 16 -27 22
-4 6 -8 90 -8 187 0 178 4 199 40 212 8 4 -10 5 -40 4 l-55 -2 -64 -172 c-35
-95 -67 -173 -70 -173 -3 0 -35 79 -71 175 l-65 175 -60 -1 c-41 -1 -52 -3
-35 -8z"/>
<path d="M1930 447 l25 -13 3 -174 c1 -96 0 -184 -2 -196 -3 -11 -16 -26 -28
-32 -31 -14 171 -16 223 -2 56 16 84 52 84 111 0 57 -20 83 -80 103 l-39 14
33 16 c31 17 61 66 61 102 0 9 -15 31 -34 50 l-34 34 -118 0 c-103 0 -116 -2
-94 -13z m200 -24 c41 -52 11 -162 -44 -164 -13 0 -4 -7 24 -17 49 -19 70 -48
70 -99 0 -65 -29 -98 -98 -109 -68 -11 -72 0 -71 207 0 98 2 186 5 194 4 10
20 15 49 15 36 0 48 -5 65 -27z"/>
<path d="M2310 451 l25 -7 3 -201 2 -201 -27 -10 c-23 -9 -12 -11 57 -11 75
-1 82 1 60 12 l-25 13 0 199 0 199 25 7 c14 4 -11 7 -60 7 -49 0 -74 -3 -60
-7z"/>
<path d="M2530 447 l25 -13 3 -174 c1 -96 0 -184 -2 -196 -3 -11 -16 -26 -28
-32 -18 -8 14 -11 139 -11 l162 -1 -2 64 c-1 35 -5 62 -9 59 -5 -2 -8 -13 -8
-23 0 -59 -44 -90 -126 -90 -73 0 -75 5 -72 218 l3 186 25 13 c22 11 16 13
-55 13 -71 0 -77 -2 -55 -13z"/>
<path d="M2900 447 l25 -13 3 -174 c1 -96 0 -184 -2 -196 -3 -11 -16 -26 -28
-32 -19 -9 -8 -11 57 -11 65 0 76 2 57 11 -12 6 -25 21 -28 32 -2 12 -3 100
-2 196 l3 174 25 13 c22 11 16 13 -55 13 -71 0 -77 -2 -55 -13z"/>
<path d="M3490 451 l25 -7 3 -201 2 -201 -27 -10 c-23 -9 -12 -11 57 -11 75
-1 82 1 60 12 -24 12 -25 18 -28 105 l-3 92 43 0 c24 0 49 -4 57 -9 7 -5 24
-49 37 -97 30 -111 63 -140 111 -96 10 9 13 13 5 8 -21 -15 -40 13 -61 89 -20
70 -46 105 -80 105 -9 0 3 9 25 19 23 10 49 29 58 42 20 30 21 88 0 117 -30
43 -65 52 -191 51 -65 -1 -107 -4 -93 -8z m215 -26 c20 -19 25 -34 25 -74 0
-71 -28 -102 -98 -109 l-52 -5 0 100 c0 55 3 103 7 106 3 4 26 7 50 7 33 0 50
-6 68 -25z"/>
<path d="M3895 453 c11 -3 23 -10 27 -17 4 -6 8 -95 8 -198 l0 -187 -27 -15
c-27 -15 -25 -15 52 -15 65 0 76 2 60 11 -11 6 -23 16 -27 22 -4 6 -8 90 -8
187 0 178 4 199 40 212 8 3 -21 5 -65 5 -44 0 -71 -3 -60 -5z"/>
</g>
</svg>
